<svg width="181" height="83" viewBox="0 0 181 83" fill="none" xmlns="http://www.w3.org/2000/svg">
<g clip-path="url(#clip0_165_1573)">
<path d="M120.34 54.4345L120.12 54.7727L120.118 58.0338C120.138 59.4854 120.936 60.4793 122.754 60.4984L128.407 60.3965L128.607 60.2373L128.667 59.7004L128.507 59.5016L125.052 59.4832C124.153 59.3842 124.013 59.0064 123.934 58.0918L123.935 54.8306L123.795 54.4529L120.34 54.4345Z" fill="black"/>
<path d="M137.261 54.4903L137.041 54.8284L137.08 57.7317C136.959 58.8055 136.52 59.4818 135.621 59.3828L133.983 59.3835C133.064 59.4634 132.585 58.8671 132.525 57.7734L132.686 54.711L132.347 54.4924L129.071 54.4939L128.851 54.832L128.89 57.7353C128.889 59.3658 129.668 60.5387 131.865 60.4185L135.5 60.4566C137.498 60.4955 138.557 59.1628 138.538 57.7111L138.499 54.8079L138.34 54.6091L137.261 54.4903Z" fill="black"/>
<path d="M148.001 54.5035C147.821 54.4837 147.621 54.6429 147.441 54.6231L145.443 56.2149L143.786 54.7639C143.626 54.5651 143.446 54.5453 143.266 54.5255L139.631 54.4873C139.451 54.4675 139.431 54.6465 139.431 54.6465L142.566 57.5286L138.989 60.2148C138.989 60.2148 138.809 60.195 138.969 60.3938L139.688 60.4731C139.868 60.4929 140.068 60.3337 140.247 60.3535L143.225 58.1448L145.541 60.212C145.701 60.4108 145.881 60.4306 146.06 60.4504L149.696 60.4885C149.876 60.5084 149.896 60.3294 149.896 60.3294C149.916 60.1504 149.916 60.1504 149.736 60.1306L146.102 56.8311L148.7 54.7618C148.7 54.7618 148.879 54.7816 148.9 54.6026C148.72 54.5828 148.72 54.5828 148.54 54.563L148.001 54.5035Z" fill="black"/>
<path d="M158.745 54.4839L158.525 54.8221L158.564 57.7253C158.624 58.819 158.004 59.4755 157.105 59.3764L155.647 59.397C154.548 59.4571 154.069 58.8607 154.189 57.7869L154.171 54.7047L154.011 54.5059L150.735 54.5073L150.335 54.8257L150.374 57.7289C150.373 59.3595 151.332 60.5522 153.349 60.4121L157.165 60.4701C159.162 60.509 160.042 59.1564 160.022 57.7048L159.984 54.8016L159.824 54.6028L158.745 54.4839Z" fill="black"/>
<path d="M161.123 54.4379L160.903 54.7761L160.841 60.2051L161.18 60.4237L164.097 60.3827L164.297 60.2235L164.279 55.5104L166.276 55.5493C166.816 55.6087 167.155 55.8273 167.115 56.1853C167.075 56.5433 166.875 56.7025 166.336 56.643L165.057 56.6834L164.837 57.0215L164.817 57.2005L164.957 57.5783L167.573 60.2221L168.272 60.4803L171.188 60.4392L171.388 60.28L171.408 60.1011L168.952 57.6561C169.871 57.5762 170.67 56.9394 170.591 56.0247C170.691 55.1297 169.852 54.4937 168.754 54.5539L161.123 54.4379Z" fill="black"/>
<path d="M180.043 54.5135C179.863 54.4937 179.863 54.4937 179.663 54.6528L177.365 57.2986L174.929 54.6748C174.929 54.6748 174.769 54.476 174.589 54.4562L171.113 54.6168C171.093 54.7958 170.914 54.776 170.914 54.776L174.168 58.2147L174.127 60.2033C174.107 60.3822 174.107 60.3822 174.287 60.4021L177.383 60.3808C177.563 60.4006 177.563 60.4006 177.583 60.2216L177.644 58.0541L180.742 54.7717C180.742 54.7717 180.762 54.5927 180.582 54.5729L180.043 54.5135Z" fill="black"/>
<path d="M38.7018 40.354C37.9827 40.2748 37.2234 40.5535 36.6239 41.0311L21.5561 53.6858L7.4983 41.0837C6.83936 40.4675 6.1403 40.2093 5.5809 40.3288L3.04394 40.2305C2.48455 40.3501 2.10494 40.4895 2.22455 41.0462L2.11628 59.8791C2.23589 60.4359 2.39561 60.6347 2.93495 60.6941L5.67174 60.6333C6.21108 60.6927 6.61075 60.3743 6.49114 59.8176L6.61438 52.2207L16.1398 59.7934C16.7987 60.4096 17.4978 60.6678 18.0371 60.7273L19.875 60.5674C20.4143 60.6268 20.9938 60.3282 21.5933 59.8507L30.0866 52.2701L30.1432 59.8867C30.083 60.4237 30.4225 60.6423 30.9618 60.7017L40.7902 60.6974C41.3496 60.5778 41.7292 60.4384 41.6096 59.8816L41.7179 41.0487C41.5983 40.492 41.4386 40.2932 40.8992 40.2337L38.7018 40.354Z" fill="black"/>
<path d="M73.3095 40.2447C72.3906 40.3246 71.6313 40.6033 70.8521 41.0611L58.8435 47.5294C58.2641 47.828 58.244 48.007 58.1638 48.7229L58.2633 49.4587C58.1831 50.1746 58.3228 50.5524 58.822 50.9698L69.1058 59.8943C69.605 60.3117 70.1243 60.5501 71.0231 60.6491L81.211 60.6844C81.9502 60.5847 82.15 60.4255 82.1901 60.0675C82.1901 60.0675 82.0705 59.5107 81.731 59.2921L67.7529 47.6051L79.7414 41.3157L79.9813 40.7985C80.0214 40.4406 79.8617 40.2418 79.5022 40.2022L73.3095 40.2447ZM45.6425 40.2767C45.1031 40.2173 44.8832 40.5554 44.8231 41.0924L44.9146 59.7657C44.8545 60.3027 45.1739 60.7003 45.5535 60.5609L55.9211 60.616C56.4605 60.6754 56.6804 60.3372 56.7405 59.8003L56.8287 41.1468C56.7091 40.59 56.5695 40.2122 56.0101 40.3318L45.6425 40.2767Z" fill="black"/>
<path d="M121.915 40.2521C121.176 40.3518 120.796 40.4912 120.397 40.8096L108.305 52.8871L96.544 40.8997C96.2246 40.5021 95.7053 40.2636 95.1459 40.3832L82.6004 40.2694C82.061 40.21 81.8211 40.7272 81.8211 40.7272L82.1205 41.3038L100.591 60.0105C100.91 60.4082 101.43 60.6466 101.969 60.706L103.787 60.7251C104.346 60.6055 104.726 60.4661 105.146 59.9688L123.992 41.2058L124.212 40.8676C124.252 40.5096 123.913 40.2909 123.553 40.2513L121.915 40.2521Z" fill="black"/>
<path d="M68.6526 6.3572C68.2915 6.3572 67.9303 6.3572 67.5692 6.3572C59.9855 6.89585 52.5824 8.33224 45.3598 10.6664C39.5818 12.1028 33.8037 13.8983 28.2062 15.6938C27.1228 16.0529 26.0394 16.2324 24.956 16.5915C20.6225 17.8484 16.289 19.1052 11.5943 19.4643C9.42753 19.4643 7.08019 19.4643 4.73286 19.2848C2.56609 19.1052 1.66326 20.362 2.20496 22.5166C2.38552 23.2348 2.56609 23.953 2.74665 24.6712C2.92721 25.2099 2.92721 25.7485 2.56609 26.2872C0.760443 28.4418 0.579879 30.9555 0.399314 33.6487L0.21875 35.0851C0.21875 36.3419 0.760443 36.3419 2.92721 36.3419H3.10778C3.28834 36.3419 3.46891 36.3419 3.64947 36.3419C4.37173 36.5215 4.55229 36.1624 4.19116 35.4442C3.64947 33.6487 3.28834 31.8532 3.83003 30.0577C4.0106 28.9804 4.55229 28.2622 5.63568 27.9031C8.16358 27.1849 10.5109 26.8258 13.0388 26.4667C16.289 26.1076 19.7197 25.569 22.9698 25.2099C21.7059 25.0303 20.2614 25.0303 18.9974 25.0303C15.2056 24.8508 11.4137 24.8508 7.80245 24.6712C7.44132 24.6712 6.89963 24.6712 6.89963 24.3121C6.89963 23.953 7.26076 23.7735 7.62188 23.5939C8.16358 23.4144 9.0664 23.2348 9.78865 23.2348C11.2332 23.2348 12.6777 23.0553 13.9416 22.6962C14.6639 22.6962 15.5667 22.6962 16.289 22.5166C20.2614 21.7984 24.4144 20.9007 28.3868 19.6439C29.4702 19.4643 30.5535 19.2848 31.6369 18.9257C36.5122 17.4893 41.3874 16.2324 46.0821 14.4369C46.2626 14.4369 46.4432 14.4369 46.6238 14.4369C54.0269 11.7437 61.6106 10.1277 69.3749 9.58909C69.736 9.58909 69.9165 9.58909 70.0971 9.58909C80.7504 9.05044 91.2231 9.76864 101.154 14.6165C105.488 16.9506 110.182 18.9257 114.877 21.0802C112.71 21.978 110.544 22.6962 108.557 23.2348C112.891 22.8757 117.044 22.6962 121.377 22.5166C124.808 22.5166 128.419 22.5166 132.031 22.5166H134.378C134.739 22.5166 134.92 22.6962 135.281 22.5166C137.989 22.8757 140.698 23.2348 143.587 23.4144C145.573 23.7735 147.74 23.953 149.907 24.6712C144.67 25.2099 140.878 27.544 138.531 31.8532C142.323 28.9804 146.476 27.0054 151.532 27.3645C156.407 27.544 160.379 29.8782 164.171 33.1101C163.088 30.7759 162.185 29.8782 158.212 26.4667C158.393 26.4667 158.393 26.4667 158.574 26.6463C164.713 28.6213 170.31 31.3146 175.366 35.4442C175.727 35.8033 176.088 36.3419 176.63 36.3419C177.894 36.3419 179.338 36.3419 180.783 36.3419C179.7 34.1873 177.533 31.8532 174.824 29.8782C164.352 22.5166 152.434 20.362 140.156 20.003C139.434 19.8234 138.892 19.8234 138.17 20.003C136.184 19.6439 134.197 19.6439 132.211 20.003C129.142 20.003 126.253 20.1825 123.364 20.362C122.822 20.362 122.461 20.362 121.919 20.003C115.238 16.7711 108.557 13.7187 101.696 10.8459C98.2651 9.40954 94.8344 7.79359 91.2231 7.0754C86.8896 6.3572 82.7366 5.9981 78.4031 5.9981C75.1529 5.9981 71.9028 6.17765 68.6526 6.3572Z" fill="black"/>
<path d="M126.246 28.6502C123.593 28.7928 120.94 28.9354 118.287 29.078C115.777 29.2206 113.267 29.4345 110.757 29.5772C111.187 29.7198 111.618 29.7911 112.048 29.7911C115.418 29.9337 118.86 30.1476 122.23 30.0763C122.661 30.0763 123.091 29.9337 123.306 30.3615C123.521 30.7893 123.019 31.0033 122.804 31.2885C121.872 32.7859 120.294 32.7146 118.789 32.7859C100.575 33.0711 82.3609 33.3563 64.1471 33.5702H56.1875C56.1875 33.7128 56.1875 33.8555 56.1875 33.9981C58.8407 34.0694 61.4939 34.1407 64.1471 33.9981C81.6438 34.2833 99.2122 34.5685 116.781 34.8537C122.876 34.925 122.876 34.8537 127.107 30.5041C127.465 30.1476 128.111 29.7198 127.824 29.1493C127.609 28.6502 127.178 28.5789 126.748 28.5789C126.533 28.5789 126.39 28.5789 126.246 28.6502Z" fill="black"/>
<path d="M60.5576 12.4034C55.1656 13.4496 50.0366 15.2804 45.0391 17.569C44.9076 17.6344 44.7761 17.6997 44.6446 17.8305C43.8555 18.419 43.5925 19.0075 44.3816 19.7921C44.8419 20.3152 45.3022 20.8383 45.8282 21.4922C43.9213 21.9499 42.1459 22.3422 40.3047 22.7999C40.3047 22.7999 40.3047 22.8653 40.3704 22.9307H106.061C106.061 22.8653 106.061 22.7999 106.061 22.7999C105.403 22.6691 104.746 22.6037 104.088 22.473C103.759 22.0153 103.562 21.4922 103.694 20.9037C104.351 18.8767 103.825 18.2228 101.655 18.2228C99.6168 18.1574 97.6441 18.2228 95.6056 18.2228C95.5399 18.2228 95.4084 18.2228 95.3426 18.2228C94.8823 18.1574 94.422 18.1574 94.2905 18.6805C94.159 19.2036 94.4878 19.5959 94.8166 19.9883C95.8687 21.0998 97.1838 21.3614 98.6304 21.296C99.0907 21.296 99.7483 21.2306 99.7483 21.8191C99.6825 22.473 99.0907 22.0806 98.6962 22.0806C93.1069 21.9499 87.5176 21.6229 81.9283 21.6883C80.0872 21.4268 78.1802 21.4268 76.3391 21.4922C75.6157 21.4922 74.8267 21.4922 74.1034 21.4268C67.8565 21.3614 61.5439 21.296 55.2971 21.1652C54.3108 20.9691 53.3902 21.0345 52.4038 21.0345C52.075 21.0345 51.7463 21.0345 51.4175 21.0345C50.2339 21.0345 49.2475 20.7729 48.2612 20.1844C47.3406 19.5959 47.3406 19.2036 48.2612 18.6805C49.4448 17.9613 50.6942 17.3074 51.9435 16.7189C55.0341 15.1497 58.3219 14.2342 61.6097 13.1881C61.8727 13.1881 62.07 13.1881 62.2672 13.1227C70.6183 11.1611 79.0351 11.0303 87.5176 12.0765C89.5561 12.338 91.5945 12.665 93.5672 12.9265C88.767 11.4226 83.7695 10.8341 78.772 10.638C77.983 10.638 77.1939 10.638 76.4706 10.638C71.0786 10.638 65.8181 11.2265 60.5576 12.4034Z" fill="black"/>
<path d="M31.63 25.2856C27.3681 26.2255 23.9206 28.4457 22.1316 32.5985C30.1636 26.2647 38.3239 26.0994 46.7777 31.7189C43.9659 27.2408 40.0073 24.8653 35.2057 24.8818C34.057 24.8746 32.8727 25.0124 31.63 25.2856Z" fill="black"/>
<path d="M4.72799 69.8221C4.18507 70.3583 3.71777 70.9655 3.33138 71.6289L9.88146 71.621L10.7606 67.2613C8.40927 67.3058 6.27874 68.2758 4.72799 69.8221Z" fill="black"/>
<path d="M12.7912 67.2665L11.9169 71.6259L15.8419 71.6204L16.7162 67.261L12.7912 67.2665Z" fill="black"/>
<path d="M19.8623 67.2638L18.9871 71.6296L25.2856 71.6234L26.1598 67.2628L19.8623 67.2638Z" fill="black"/>
<path d="M30.4204 67.2653L29.5483 71.6269L37.3236 71.6229L38.1957 67.2613L30.4204 67.2653Z" fill="black"/>
<path d="M43.0179 67.2678L42.1456 71.6299L51.7455 71.6193L52.6179 67.2572L43.0179 67.2678Z" fill="black"/>
<path d="M57.9996 67.3225L57.1269 71.6898L179.603 71.5694C180.351 70.2806 180.784 68.79 180.783 67.1981L57.9996 67.3225Z" fill="black"/>
<path d="M3.33218 71.625C2.58966 72.904 2.15916 74.3959 2.15831 75.9826L9.01603 75.9779L9.89055 71.6188L3.33218 71.625Z" fill="black"/>
<path d="M11.9203 71.6222L11.0458 75.9851L14.9717 75.9802L15.8462 71.6173L11.9203 71.6222Z" fill="black"/>
<path d="M18.9868 71.6258L18.1147 75.9851L24.4104 75.9814L25.2885 71.618L18.9868 71.6258Z" fill="black"/>
<path d="M29.5561 71.6229L28.683 75.9878L36.4576 75.9801L37.3257 71.6142L29.5561 71.6229Z" fill="black"/>
<path d="M42.1504 71.6274L41.2784 75.9879L50.8745 75.9799L51.7475 71.6144L42.1504 71.6274Z" fill="black"/>
<path d="M57.1207 71.6204L56.2557 75.978H172.013C174.437 75.978 176.623 75.0045 178.213 73.4283C178.752 72.8875 179.223 72.2848 179.602 71.6204H57.1207Z" fill="black"/>
<path d="M67.3867 70.8351C67.3867 69.2886 68.2596 68.9238 69.7271 68.9238H71.6421C73.9605 68.9238 74.2614 69.4199 74.2466 70.9153H72.6178V70.7695C72.6178 70.3901 72.3391 70.2806 71.8548 70.2806H70.0791C69.2209 70.2806 69.0596 70.682 69.0596 71.3387V71.9078C69.0596 72.6737 69.2209 72.9654 69.9914 72.9654H71.7301C72.4638 72.9654 72.684 72.8927 72.684 72.2358H74.3126V72.7321C74.3126 73.6221 73.99 74.3226 72.3537 74.3226H69.7271C68.2596 74.3226 67.3867 73.9578 67.3867 72.4111V70.8351Z" fill="white"/>
<path d="M81.3506 72.2102H83.4342L82.3777 70.2257L81.3506 72.2102ZM81.3214 69H83.4415L86.3619 74.2821H84.5495L84.0432 73.3484H80.7414L80.2648 74.2821H78.4453L81.3214 69Z" fill="white"/>
<path d="M92.2384 71.5792H94.931C95.3712 71.5792 95.5327 71.4041 95.5327 71.0247V70.8496C95.5327 70.3826 95.2981 70.2951 94.7843 70.2951H92.2384V71.5792ZM90.6094 68.9819H95.5254C96.78 68.9819 97.1172 69.6021 97.1172 70.5504V70.8862C97.1172 71.5938 96.9563 72.0097 96.2075 72.1848V72.1994C96.6923 72.2868 97.0957 72.4983 97.0957 73.3665V74.264H95.4665V73.6293C95.4665 73.0748 95.3052 72.8924 94.799 72.8924H92.2384V74.264H90.6094V68.9819Z" fill="white"/>
<path d="M110.809 71.5792H113.501C113.942 71.5792 114.103 71.4041 114.103 71.0247V70.8496C114.103 70.3826 113.868 70.2951 113.354 70.2951H110.809V71.5792ZM109.18 68.9819H114.095C115.35 68.9819 115.687 69.6021 115.687 70.5504V70.8862C115.687 71.5938 115.526 72.0097 114.778 72.1848V72.1994C115.262 72.2868 115.666 72.4983 115.666 73.3665V74.264H114.037V73.6293C114.037 73.0748 113.875 72.8924 113.369 72.8924H110.809V74.264H109.18V68.9819Z" fill="white"/>
<path d="M120.453 68.9819H126.264V70.2077H122.082V71.054H126.044V72.1483H122.082V72.9946H126.359V74.264H120.453V68.9819Z" fill="white"/>
<path d="M131.012 68.9819H133.536L136.595 72.8193H136.61V68.9819H138.239V74.264H135.715L132.655 70.4266H132.641V74.264H131.012V68.9819Z" fill="white"/>
<path d="M142.621 68.9819H148.828V70.2951H146.539V74.264H144.91V70.2951H142.621V68.9819Z" fill="white"/>
<path d="M155.046 72.1921H157.13L156.073 70.2077L155.046 72.1921ZM155.017 68.9819H157.137L160.057 74.264H158.245L157.739 73.3304H154.437L153.96 74.264H152.141L155.017 68.9819Z" fill="white"/>
<path d="M164.305 68.9819H165.934V72.907H169.595V74.264H164.305V68.9819Z" fill="white"/>
</g>
<defs>
<clipPath id="clip0_165_1573">
<rect width="181" height="83" fill="white"/>
</clipPath>
</defs>
</svg>
